<?xml version="1.0" encoding="UTF-8"?>
<svg id="a" xmlns="http://www.w3.org/2000/svg" version="1.1" viewBox="0 0 576 188.6">
  <!-- Generator: Adobe Illustrator 29.8.2, SVG Export Plug-In . SVG Version: 2.1.1 Build 3)  -->
  <defs>
    <style>
      .st0 {
        fill: #1d2758;
      }

      .st1 {
        fill: #cda82b;
      }

      .st2 {
        fill: #fff;
      }
    </style>
  </defs>
  <rect class="st1" x=".5" width="161.9" height="188.6"/>
  <rect class="st0" x="5.3" y="4.8" width="152.3" height="179.1"/>
  <path class="st1" d="M75.3,153.3c-1-.1-7.5-1.4-9.7-2.1-1.6-.5-3.2-1-4.8-1.6-3.2-1.2-6.4-2.4-9.7-3.7-.6-.2-1.2-.4-1.6-.7-.3-.2-.7-.3-1.1-.5-1-.4-1.9-.9-2.9-1.3,0,0-.1,0-.2-.1-.5-.2-.8-.4-.7-.6,0-.1.4-1,.2-1.3-.8-.6-4.5-3.1-7.4-4.8-2.9-1.7-7.3-4.8-10.9-6.9-1-.6-2-1.3-3.1-2-.2-.1-.4-.2-.7-.3-.9.5-.7,4.9-.5,5.6.9,3,2.3,5.6,4.6,7.8,3.1,2.9,6.1,5.8,9.2,8.7,3.2,2.9,7,4.8,11,6.3,6.1,2.4,12.1,4.9,18.3,7.1,3.8,1.3,7.6,2.4,11.5,3.4v-14.4c0,.9-.7,1.3-1.7,1.2h0Z"/>
  <path class="st2" d="M53.7,66.7v1.6c0-10.8,0-19.4.3-26,.3-14,1.4-16.6,9.4-17.2,1.3-.2,1.1-1.9,0-1.9-4.3.2-11.5.5-16.7.5s-12.9-.3-17-.5c-1.3,0-1.3,1.7,0,1.9,9.4,1.3,9.6,3.7,10.2,17.2.3,5.6.3,21,.3,33.5s0,22.3-.3,27.7c-.5,13.5-.5,16.3-9.9,17.5-1,0-1.3,1.9,0,1.9,4.1-.2,11.5-.5,16.6-.5s12.4.3,17.2.5c1.3,0,1.1-1.9,0-1.9-8-.6-9.4-3.5-9.7-17.5-.2-5.3-.3-23.1-.3-29.5v5.9-13.3h0Z"/>
  <path class="st2" d="M133.2,121c-9.4-1.3-9.7-4-10.2-17.5-.2-7-.5-24.5-.5-32.2s.2-22.3.5-28.7c.5-13.5.5-16.3,9.9-17.5,1.1-.2,1-1.9,0-1.9-5.1.2-12.4.5-17.2.5s-11.5-.3-16.7-.5c-1.1,0-1.3,1.7,0,1.9,8,.6,9.4,3.8,9.7,17.5.2,4.8.3,14.3.3,25.7v-2.7,21.7-13.4c0,6.2-.2,24.4-.3,29.6-.3,14-1.4,16.9-9.4,17.5-1.1,0-1.3,1.9,0,1.9,5.3-.2,11.3-.5,16.9-.5s11.9.3,17,.5c1.3,0,1.1-1.9,0-1.9h0Z"/>
  <path class="st1" d="M76.1,63c-2.1,0-4.2,0-6.3,0-1.2,0-2.4.1-3.6.2-.8,0-1.6,0-2.4,0-3.2.1-4,.3-7.2.4-3.7.2-7.3.4-11,.7-1.9.1-3.8.3-5.7.4-3.3.2-6.5.5-9.8.8-.3,0-.6.1-1,.2-1.1.3-1.1,1.4-1,2.7,0,1.3.5,2.3.7,2.5s2.5.3,3.8.5c3.5.4,7.1.7,10.6,1,4,.3,8,.6,11.9,1,5.9.5,9.4.9,15.3,1.4,2,.1,4,.1,5.9.2.7,0,1.1.2,1.3.6v-12.7h-1.5,0Z"/>
  <path class="st1" d="M86.6,75.1c2,0,4,0,5.9-.2,5.9-.4,9.4-.9,15.3-1.4,4-.3,8-.6,11.9-1,3.5-.3,7.1-.7,10.6-1,1.2-.1,3.6-.3,3.8-.5.2-.2.6-1.2.7-2.5s.1-2.4-1-2.7c-.3,0-.6-.2-1-.2-3.3-.3-6.5-.5-9.8-.8-1.9-.1-3.8-.3-5.7-.4-3.7-.2-7.3-.5-11-.7-3.2-.2-4-.3-7.2-.4-.8,0-1.6,0-2.4,0-1.2,0-2.4-.2-3.6-.2-2.1,0-4.2,0-6.3,0h-1.5v12.6c.2-.4.5-.5,1.2-.6h0Z"/>
  <path class="st2" d="M140.1,127.5c-.2,0-.5.2-.7.3-1,.6-2,1.3-3.1,2-3.6,2.1-8,5.2-10.9,6.9-2.9,1.7-6.6,4.1-7.4,4.8-.2.4.1,1.2.2,1.3.1.2-.2.3-.7.6,0,0-.1,0-.2.1-1,.4-1.9.9-2.9,1.3-.3.2-.7.3-1.1.5-.5.3-1.1.5-1.6.7-3.2,1.2-6.4,2.5-9.7,3.7-1.6.6-3.2,1.1-4.8,1.6-2.2.7-6.9,2-7.9,2.1-1,.1-1.6-.3-1.7-1.2,0-.9-.3-104.8-.3-107.4,0-.9,0-3.3,0-3.3,0,0-3.5-.7-5.9-.7h-.3c-2.4,0-5.9.7-5.9.7,0,0,0,2.4,0,3.3,0,2.6-.2,106.5-.3,107.4v13.9c.5.1,2.9.8,3.4,1,1,.3,2,.4,2.9.4,1,0,3.8-.1,4.8-.4,4.4-1.2,7-2.4,11.2-3.9,6.2-2.2,12.2-4.7,18.3-7.1,4-1.6,7.9-3.5,11-6.3,3.1-2.8,6.1-5.8,9.2-8.7,2.3-2.2,3.8-4.9,4.6-7.8.2-.7.5-5.1-.5-5.6h0Z"/>
  <path class="st0" d="M197.3,126.3c10.7-.4,11.2-5.1,11.2-15.3v-35.6c0-11.8-1.2-14.5-11.2-15.1v-2.8c7.9.2,12.3.3,19,.3s13.6-.2,18.9-.3v2.8c-8.6.7-11.2,3-11.2,15.1v37.5c0,10.4,3.5,10.9,11.7,10.9h6.1c9.7-.2,16-5.3,19.6-17.4h3l-.9,12.1c-.5,6.2-1.7,8.4-4,10.5-7-.1-12.5-.2-18.2-.3-2.8,0-11.2,0-14.3,0-11.6,0-21.2,0-29.7.3v-2.8h0Z"/>
  <path class="st0" d="M270.2,126.3c10.4-.4,11.2-4.7,11.2-15v-36.1c0-11.1-1.1-14.5-11.2-14.9v-2.8c8.1.2,18.5.3,28.7.3s17-.2,27.5-.6c1.4,1.9,1.7,6.2,1.5,10.5,0,1.5-.4,8.6-.4,8.6h-2.8c-2.2-11.1-6.5-14.5-27.5-14.5,0,1.4-.3,8.1-.3,10v18.1h3c15,0,16.9-1.7,18.7-8.3h2.4v21.8h-2.7c-1.2-7.5-3.5-8.9-18.3-9.1h-3.1v18.3c0,8.6,1.3,11.2,10.6,11.2,13.2,0,18.5-4.1,22.3-15.8h2.9c-.2,3-.7,9.3-.9,11.4-.6,5.8-1.3,8.1-3.5,9.7-10.3-.2-16.9-.3-26.2-.3s-21.1,0-31.9.3v-2.8h0Z"/>
  <path class="st0" d="M346.7,75.4c-4.6-11.6-6.5-14.6-13.2-15.1v-2.8c5.7.2,10.5.3,16.3.3s11.9,0,17.3-.3v2.8c-6.2.3-7.6,4.4-5.8,10,4.2,12.9,10.7,29.6,14.4,39.1,3.8-8.4,8.5-19.6,11.9-28.4-6.3-17-8.3-20.2-13.8-20.8v-2.7c5.8.2,11.2.3,16.8.3s11.1,0,16.7-.3v2.8c-7.7.5-10.2,3.3-8,10,4.2,13.1,10.5,29.5,14.3,39.2,3-7.9,8.4-22.4,12.4-35.8,2.8-9.2.2-12.9-9.1-13.4v-2.8c5.5.2,8.3.3,14.3.3s9.9,0,14.6-.3v2.8c-5.9.7-8.1,3.3-11.8,12.4-8.4,20.7-15,37.6-21.9,55.9l-6,1.4c-4.1-11.6-10.4-28.4-15.4-41.6-4.9,10.7-12,27.6-17,40.1l-6,1.4c-5.5-15-13.6-36.2-21.1-54.7h0Z"/>
  <path class="st0" d="M450.9,126.3c10.4-.4,11.2-4.7,11.2-15v-36.1c0-11.1-1.1-14.5-11.2-14.9v-2.8c8.1.2,18.5.3,28.7.3s17-.2,27.5-.6c1.4,1.9,1.7,6.2,1.5,10.5,0,1.5-.4,8.6-.4,8.6h-2.8c-2.2-11.1-6.5-14.5-27.5-14.5,0,1.4-.3,8.1-.3,10v18.1h3c15,0,16.9-1.7,18.7-8.3h2.4v21.8h-2.7c-1.2-7.5-3.5-8.9-18.3-9.1h-3.1v18.3c0,8.6,1.3,11.2,10.6,11.2,13.2,0,18.5-4.1,22.3-15.8h2.9c-.2,3-.7,9.3-.9,11.4-.6,5.8-1.3,8.1-3.5,9.7-10.3-.2-16.9-.3-26.2-.3s-21.1,0-31.9.3v-2.8h0Z"/>
  <path class="st0" d="M524.7,125.7c-2.4-2.7-2.6-6.7-2.3-11l.8-10.1h3.4c2.1,15.4,10.4,21.5,19.9,21.5s14.4-5.3,14.4-13.1-4.6-10.8-14-13.1c-12.1-3-24-7.6-24-22.2s10.8-21.7,27.6-21.7,13.5,1,18.4,3.3c2.8,3.1,2.6,8.9,2.6,11v8.9h-3.7c-1.4-10.6-7.3-19.1-16.9-19.1s-13,6.8-12.8,12.9c.2,7.4,5.1,10.7,13.4,12.9,15.8,4.1,24,10,24,22.1s-11.1,22.5-29.1,22.5-18.6-2.5-21.7-4.8h0Z"/>
  <path class="st0" d="M198.5,33.2c4.9-.1,5.4-2.1,5.4-7.2V8.8c0-5.1-.3-7-5.4-7.2V.3c3.1,0,6.1.1,9.1.1s5.8,0,8.7-.1v1.3c-4.5.2-4.9,2.1-4.9,7.2v6.8h14.7v-7.1c0-4.7-.5-6.7-4.9-6.8V.3c3.2,0,5.6.1,8.6.1s5.7,0,9.1-.1v1.3c-4.7,0-5.3,2.1-5.3,6.8v17.5c0,5.2.6,7.1,5.3,7.2v1.3c-3.4,0-5.9-.1-8.9-.1s-5.5,0-8.9.1v-1.3c4.5-.1,5-2.1,5-7.2v-8h-14.7v8c0,5.1.5,7,4.9,7.2v1.3c-3.1,0-5.6-.1-8.8-.1s-5.5,0-8.9.1v-1.3h0Z"/>
  <path class="st0" d="M245.6,33.2c5.1-.1,5.6-2.2,5.6-7.3V8.9c0-5.1-.2-7.1-5.6-7.3V.3c3.2,0,6.2.1,9.4.1s6.1,0,9.2-.1v1.3c-5.2.2-5.6,2.2-5.6,7.3v17c0,5.2.5,7.1,5.5,7.3v1.3c-4,0-6-.1-9.4-.1s-5.5,0-9.2.1v-1.3h0Z"/>
  <path class="st0" d="M272.2,32.9c-1.1-1.3-1.2-3.2-1.1-5.3l.4-4.8h1.6c1,7.4,5,10.3,9.5,10.3s6.9-2.5,6.9-6.2-2.2-5.2-6.7-6.2c-5.8-1.4-11.5-3.6-11.5-10.6s5.2-10.4,13.2-10.4,6.4.5,8.8,1.6c1.3,1.5,1.2,4.3,1.2,5.3v4.3h-1.8c-.7-5.1-3.5-9.2-8.1-9.2s-6.2,3.3-6.1,6.2c0,3.5,2.5,5.1,6.4,6.2,7.6,2,11.5,4.8,11.5,10.6s-5.3,10.8-13.9,10.8-8.9-1.2-10.4-2.3h0Z"/>
  <path class="st0" d="M309.2,33.2c5.3-.3,6-2.2,6-7.3v-15.8c0-1.8,0-7.6,0-7.6-7,0-9.4,1.6-10.8,8h-1.3v-6c0-2,.3-4,1.1-4.9,1,.7,2.9.9,4.2.9h20.9c1.6,0,3.5-.2,4.6-.9.8.9,1.1,3,1.1,4.9v5.9h-1.4c-1.4-6.2-3.8-7.8-10.8-7.8,0,0,0,5.8,0,7.6v15.9c0,5,.7,6.8,6,7.2v1.3c-4.6-.1-6.3-.1-9.8-.1s-5.2,0-9.6.1v-1.3h0Z"/>
  <path class="st0" d="M341.1,17.4c0-10.6,7.2-17.8,18.1-17.8s18.2,7.2,18.2,17.8-7.3,17.9-18.2,17.9-18.1-7.3-18.1-17.9ZM368.8,17.4c0-9.7-3.3-15.9-9.6-15.9s-9.6,6.2-9.6,15.9,3.3,15.9,9.6,15.9,9.6-6.2,9.6-15.9Z"/>
  <path class="st0" d="M383.2,33.2c5.3-.2,5.4-2.5,5.4-7.4V8.3c0-4.7-.4-6.4-5.4-6.6V.3h14.5c8.5,0,15.6,2,15.5,9.5,0,3.5-2.8,6.2-6.6,7.5,1.2,2.6,2.7,5.5,4.5,8.2,2.8,4,5.8,7.3,9.8,7.8v1.3c-1.2.2-2.7.3-4.2.3-4.4,0-7-1.1-9.1-3.2-1.6-1.6-2.9-3.4-4.3-5.9-1.3-2.2-2.7-4.9-3.5-6.8-1.1,0-2.7,0-3.7-.1v7.1c0,4.9.3,7,4.9,7.2v1.3c-3.5,0-5.3-.1-8.7-.1s-5.4,0-9,.1v-1.3h0ZM405.3,9.7c0-4.9-2.8-7.7-9.2-7.7,0,1.3-.1,3.3-.1,5.8v9.7c5.6,0,9.3-2.3,9.3-7.7h0Z"/>
  <path class="st0" d="M425.8,33.2c5.1-.1,5.6-2.2,5.6-7.3V8.9c0-5.1-.2-7.1-5.6-7.3V.3c3.2,0,6.2.1,9.4.1s6.1,0,9.2-.1v1.3c-5.2.2-5.6,2.2-5.6,7.3v17c0,5.2.5,7.1,5.5,7.3v1.3c-4,0-6-.1-9.4-.1s-5.5,0-9.2.1v-1.3Z"/>
  <path class="st0" d="M451.2,17.7c0-12.3,8.4-18.1,19-18.1s7.1.4,11,2.3c1.2,1.6,1.3,3.9,1.2,6l-.2,4.4h-1.6c-.9-6.6-4.3-10.8-10.3-10.8s-10.5,6-10.5,15.6,3.3,16.2,10.7,16.2,9.4-3.1,10.8-10h1.6l-.2,4c-.1,2.5-.9,4.6-2,5.8-2.8,1.3-6.6,2.2-10.6,2.2-11.9,0-18.9-6.2-18.9-17.6h0Z"/>
  <path class="st0" d="M197.4,169.4c0-13.8,9.4-20.2,21.2-20.2s7.9.5,12.3,2.6c1.4,1.8,1.5,4.4,1.4,6.7l-.2,5h-1.8c-1-7.4-4.9-12.1-11.6-12.1s-11.7,6.7-11.7,17.5,3.7,18.1,12,18.1,10.5-3.4,12.1-11.2h1.8l-.3,4.5c-.2,2.8-1,5.1-2.2,6.4-3.1,1.4-7.4,2.4-11.9,2.4-13.3,0-21.2-6.9-21.2-19.7Z"/>
  <path class="st0" d="M236.2,169.1c0-11.8,8.1-19.9,20.3-19.9s20.4,8.1,20.4,19.9-8.2,20-20.4,20-20.3-8.2-20.3-20ZM267.2,169.1c0-10.8-3.6-17.7-10.7-17.7s-10.7,6.9-10.7,17.7,3.6,17.8,10.7,17.8,10.7-7,10.7-17.8Z"/>
  <path class="st0" d="M280,186.8c5.7-.2,6-2.8,6-8.2v-19.1c0-6.3-.7-7.8-6-8.1v-1.5c4.2.1,6.6.2,10.2.2s7.3-.1,10.1-.2v1.5c-4.6.4-6,1.6-6,8.1v20.1c0,5.6,1.9,5.8,6.3,5.8s8.9-2.7,10.9-9.3h1.6l-.5,6.5c-.3,3.3-.9,4.5-2.1,5.6-5.6-.1-9.4-.2-14.5-.2s-11.4,0-15.9.2v-1.5Z"/>
  <path class="st0" d="M315.2,186.8c5.7-.2,6-2.8,6-8.2v-19.1c0-6.3-.7-7.8-6-8.1v-1.5c4.2.1,6.6.2,10.2.2s7.3-.1,10.1-.2v1.5c-4.6.4-6,1.6-6,8.1v20.1c0,5.6,1.9,5.8,6.3,5.8s8.9-2.7,10.9-9.3h1.6l-.5,6.5c-.3,3.3-.9,4.5-2.1,5.6-5.6-.1-9.4-.2-14.5-.2s-11.4,0-15.9.2v-1.5Z"/>
  <path class="st0" d="M350.4,186.8c5.6-.2,6-2.5,6-8v-19.3c0-6-.6-7.8-6-8v-1.5c4.4.1,9.9.2,15.4.2s9.1-.1,14.7-.3c.8,1,.9,3.3.8,5.6,0,.8-.2,4.6-.2,4.6h-1.5c-1.2-6-3.5-7.8-14.7-7.8,0,.8-.2,4.4-.2,5.3v9.7h1.6c8,0,9-.9,10-4.5h1.3v11.7h-1.4c-.7-4-1.9-4.8-9.8-4.9h-1.7v9.8c0,4.6.7,6,5.7,6,7.1,0,9.9-2.2,12-8.5h1.5c-.1,1.6-.4,5-.5,6.1-.3,3.1-.7,4.4-1.9,5.2-5.5-.1-9-.2-14.1-.2s-11.3,0-17.1.2v-1.5Z"/>
  <path class="st0" d="M387.5,169.4c0-13.8,9.4-20.2,21.2-20.2s7.9.5,12.3,2.6c1.4,1.8,1.5,4.4,1.4,6.7l-.2,5h-1.8c-1-7.4-4.9-12.1-11.6-12.1s-11.7,6.7-11.7,17.5,3.7,18.1,12,18.1,10.5-3.4,12.1-11.2h1.8l-.3,4.5c-.2,2.8-1,5.1-2.2,6.4-3.1,1.4-7.4,2.4-11.9,2.4-13.3,0-21.2-6.9-21.2-19.7Z"/>
  <path class="st0" d="M432.8,186.8c5.9-.3,6.7-2.4,6.7-8.2v-17.7c0-2,0-8.5,0-8.5-7.8,0-10.5,1.8-12.1,8.9l-1.5-.2v-6.6c0-2.2.3-4.5,1.2-5.5,1.2.8,3.2,1,4.7,1h23.4c1.8,0,3.9-.2,5.1-1,.9,1,1.3,3.4,1.3,5.5v6.6l-1.5.2c-1.5-7.1-4.2-8.9-12.1-8.9,0,0,0,6.4,0,8.5v17.7c0,5.6.8,7.7,6.7,8.1v1.5c-5.2-.2-7.1-.2-10.9-.2s-5.8,0-10.7.2v-1.5Z"/>
  <path class="st0" d="M464,186.8c5.7-.2,6.2-2.5,6.2-8.2v-19c0-5.7-.2-7.9-6.2-8.2v-1.5c3.6.1,6.9.2,10.5.2s6.8,0,10.3-.2v1.5c-5.8.3-6.2,2.4-6.2,8.2v19.1c0,5.8.6,8,6.2,8.2v1.5c-4.5-.1-6.7-.2-10.5-.2s-6.2,0-10.3.2v-1.5Z"/>
  <path class="st0" d="M488.3,169.1c0-11.8,8.1-19.9,20.3-19.9s20.4,8.1,20.4,19.9-8.2,20-20.4,20-20.3-8.2-20.3-20ZM519.3,169.1c0-10.8-3.6-17.7-10.7-17.7s-10.7,6.9-10.7,17.7,3.6,17.8,10.7,17.8,10.7-7,10.7-17.8Z"/>
  <path class="st0" d="M567.9,188.8c-6.1-6.8-20-22.6-26-28.8,0,6.4,0,12.7.2,19.5.2,5.3,1.6,7.1,6.9,7.3v1.5c-2.7-.1-5.8-.2-8.9-.2s-5.7,0-8,.2v-1.5c4.6-.4,5.6-2.5,5.7-7.2.3-7.4.4-11.9.3-20.3,0-4.9-2-7.6-6.6-7.9v-1.5c2.2,0,4.3.1,6.2.1s4,0,5.8-.1c5.2,5.7,18.6,20.8,22.6,24.9,0-5.9,0-11.1-.1-17.4,0-4.5-1.7-6-6.9-6.1v-1.4c1.8,0,5.1.2,8.3.2s6.2-.1,8.2-.2v1.4c-4.6.2-5.2,2.1-5.4,5.7-.2,4.3-.3,16.9-.3,20.7,0,6.5.1,9.4.2,11.4l-2.1-.3Z"/>
</svg>